# xmcd
#
# Track frame offsets:
# 150
# 18407
# 40950
# 56030
#
# Disc length: 991 seconds
#
# Revision: 0
# Processed by: cddbd v1.4PL0 Copyright (c) Steve Scherf et al.
# Submitted via: Axialis_AX_CDPlayer 2.6
#
DISCID=2e03dd04
DTITLE=Shania Twain - From This Moment On
DYEAR=1900
DGENRE=
TTITLE0=From This Moment On ( The Right Version )
TTITLE1=From This Moment On ( The Right Album Version )
TTITLE2=You're Still The One ( Radio Edit w/o Intro )
TTITLE3=You're Still The One ( Soul Solution Dance - Radio Edit )
EXTD=
EXTT0=
EXTT1=
EXTT2=
EXTT3=
PLAYORDER=
